#N canvas 0 0 1280 704 10;
#X obj 27 94 osc~ 440;
#X msg 186 123 threshold \$1;
#X floatatom 186 98 5 0 0 0 - - - 0;
#X obj 75 272 env~;
#X obj 27 273 env~;
#X obj 27 303 - 100;
#X floatatom 27 325 5 0 0 0 - - - 0;
#X obj 75 302 - 100;
#X floatatom 75 324 5 0 0 0 - - - 0;
#X obj 191 270 env~;
#X obj 191 300 - 100;
#X floatatom 191 322 5 0 0 0 - - - 0;
#X floatatom 292 96 5 0 0 0 - - - 0;
#X msg 292 123 ratio \$1;
#X text 207 185 // arg \$1: threshold;
#X text 236 322 dB;
#X text 205 203 // arg \$2: ratio;
#X obj 75 185 hv.comprez2~ 60 2;
#X floatatom 381 96 5 0 0 0 - - - 0;
#X msg 381 123 attack_release \$1;
#X text 202 221 // arg \$3: attack/release (ms);
#X text 25 25 stereo compressor \, enhanced version of hv.compress2~ with tunable attack/release parameter \, adjustable threshold and ratio settings, f 97;
#X connect 0 0 4 0;
#X connect 0 0 17 0;
#X connect 0 0 17 1;
#X connect 1 0 17 2;
#X connect 2 0 1 0;
#X connect 3 0 7 0;
#X connect 4 0 5 0;
#X connect 5 0 6 0;
#X connect 7 0 8 0;
#X connect 9 0 10 0;
#X connect 10 0 11 0;
#X connect 12 0 13 0;
#X connect 13 0 17 2;
#X connect 17 0 3 0;
#X connect 17 1 9 0;
#X connect 18 0 19 0;
#X connect 19 0 17 2;
